<svg width="32" height="32" viewBox="0 0 32 32" fill="none" xmlns="http://www.w3.org/2000/svg">
<path d="M10.0634 29.0009C22.1389 29.0009 28.7437 18.9965 28.7437 10.3206C28.7437 10.0365 28.7437 9.75357 28.7245 9.47197C30.0094 8.54258 31.1185 7.39182 32 6.07357C30.8019 6.60477 29.5307 6.95298 28.2291 7.10653C29.5998 6.28612 30.6255 4.99558 31.1155 3.47517C29.8268 4.23998 28.4168 4.77894 26.9466 5.06877C25.9567 4.01621 24.6475 3.31923 23.2216 3.08568C21.7957 2.85214 20.3326 3.09506 19.0586 3.77684C17.7847 4.45863 16.771 5.54127 16.1743 6.85724C15.5777 8.1732 15.4314 9.64913 15.7581 11.0566C13.1479 10.9257 10.5943 10.2473 8.26327 9.06558C5.9322 7.88384 3.87569 6.22512 2.2272 4.19709C1.38764 5.64242 1.1305 7.3534 1.50813 8.98166C1.88577 10.6099 2.86979 12.033 4.25984 12.9613C3.21498 12.9306 2.19286 12.6488 1.28 12.1395V12.2227C1.28041 13.7385 1.80513 15.2075 2.76516 16.3805C3.72519 17.5535 5.06141 18.3584 6.5472 18.6585C5.58064 18.9222 4.5665 18.9607 3.58272 18.7712C4.00242 20.0756 4.81924 21.2163 5.91899 22.0338C7.01873 22.8512 8.34644 23.3046 9.71648 23.3305C8.35525 24.4005 6.79642 25.1916 5.12917 25.6585C3.46191 26.1255 1.71895 26.2591 0 26.0518C3.00244 27.9785 6.4959 29.0005 10.0634 28.9958" fill="#1DA1F2"/>
</svg>
